<svg id="visual" viewBox="0 0 900 600" width="120" height="120" xmlns="http://www.w3.org/2000/svg" xmlns:xlink="http://www.w3.org/1999/xlink" version="1.1"><g transform="translate(415.61237377586497 313.56795762335776)"><path d="M169.6 -193.8C210.6 -167.7 228.4 -105.5 229.8 -47.9C231.1 9.7 216 62.9 187.6 104.9C159.3 146.9 117.6 177.7 75.2 183C32.7 188.3 -10.5 167.9 -52.9 150.3C-95.3 132.7 -136.8 117.8 -152.5 88.9C-168.2 60 -158 17 -156 -33.3C-154 -83.5 -160.2 -141 -135.6 -169.9C-111 -198.9 -55.5 -199.5 4.4 -204.7C64.3 -209.9 128.6 -219.9 169.6 -193.8" fill="#ff5555"></path></g></svg>