<svg id="visual" viewBox="0 0 900 600" width="900" height="600" xmlns="http://www.w3.org/2000/svg" xmlns:xlink="http://www.w3.org/1999/xlink" version="1.1"><g transform="translate(428.6647377235888 340.1244247032316)"><path d="M161.8 -184.1C210.9 -151.6 252.7 -101.8 259.3 -48.1C265.9 5.6 237.3 63 198.5 100C159.8 137 110.8 153.6 67.5 157C24.2 160.4 -13.6 150.7 -65.3 146.2C-117.1 141.8 -182.8 142.7 -206.3 113.5C-229.7 84.4 -210.9 25.3 -201.6 -37C-192.3 -99.2 -192.6 -164.5 -160.6 -200C-128.6 -235.5 -64.3 -241.3 -4 -236.5C56.4 -231.8 112.7 -216.6 161.8 -184.1" fill="#2F63CB"></path></g></svg>