<svg id="visual" viewBox="0 0 900 600" width="900" height="600" xmlns="http://www.w3.org/2000/svg" xmlns:xlink="http://www.w3.org/1999/xlink" version="1.1"><g transform="translate(488.64936417901015 268.51498597268335)"><path d="M97.4 -110.1C130.6 -88.3 164.8 -61.7 171.8 -29.2C178.8 3.3 158.7 41.6 134.6 72.4C110.5 103.1 82.4 126.3 42.2 159.9C2.1 193.6 -50.3 237.7 -89.5 230.3C-128.7 222.8 -154.9 163.6 -186.5 108.1C-218.2 52.5 -255.3 0.5 -250 -46.6C-244.7 -93.6 -196.9 -135.7 -148.2 -154.7C-99.4 -173.8 -49.7 -169.9 -8.8 -159.4C32.1 -149 64.3 -131.9 97.4 -110.1" fill="#F24080"></path></g></svg>