<svg id="visual" viewBox="0 0 900 600" width="900" height="600" xmlns="http://www.w3.org/2000/svg" xmlns:xlink="http://www.w3.org/1999/xlink" version="1.1"><g transform="translate(432.1893996861779 329.01236667143297)"><path d="M145.2 -174.4C193.1 -132.8 240.3 -91.8 237.7 -50.3C235 -8.8 182.5 33.1 145.6 71.9C108.7 110.8 87.5 146.5 53.4 168.3C19.3 190.1 -27.8 198 -76.4 189.2C-125 180.5 -175.1 155.3 -193.5 115.5C-211.8 75.8 -198.5 21.6 -178.3 -20.8C-158.1 -63.1 -131.1 -93.6 -100.3 -138.2C-69.4 -182.7 -34.7 -241.4 7 -249.7C48.6 -258 97.3 -215.9 145.2 -174.4" fill="#9357C2"></path></g></svg>