<svg id="visual" viewBox="0 0 900 600" width="900" height="600" xmlns="http://www.w3.org/2000/svg" xmlns:xlink="http://www.w3.org/1999/xlink" version="1.1"><g transform="translate(468.2082058436041 295.0466942364086)"><path d="M91 -124.7C115.7 -87.8 131.7 -56.9 155.7 -13.7C179.6 29.5 211.5 85 201.6 129.9C191.8 174.8 140.2 209.1 86 223.1C31.8 237.1 -25 230.9 -83 215.3C-141.1 199.7 -200.5 174.9 -225.1 130.7C-249.7 86.5 -239.6 23 -223.5 -34.4C-207.4 -91.8 -185.3 -143.2 -147.1 -177.6C-108.8 -212.1 -54.4 -229.5 -10.6 -216.9C33.2 -204.2 66.4 -161.5 91 -124.7" fill="#CE46A7"></path></g></svg>